<svg width="27" height="22" viewBox="0 0 27 22" fill="none" xmlns="http://www.w3.org/2000/svg">
<path d="M23.6106 7.60313L22.8053 8.86863L23.6106 7.60313ZM12.4205 2.40866L11.6647 1.113L12.4205 2.40866ZM11.6647 1.113L2.73258 6.32339L4.24419 8.91472L13.1763 3.70433L11.6647 1.113ZM24.4159 6.33764L16.348 1.20352L14.7374 3.73451L22.8053 8.86863L24.4159 6.33764ZM23.5 10.1341V17.4873H26.5V10.1341H23.5ZM22 18.9873H5V21.9873H22V18.9873ZM3.5 17.4873V10.2104H0.5V17.4873H3.5ZM5 18.9873C4.17157 18.9873 3.5 18.3157 3.5 17.4873H0.5C0.5 19.9726 2.51472 21.9873 5 21.9873V18.9873ZM23.5 17.4873C23.5 18.3157 22.8284 18.9873 22 18.9873V21.9873C24.4853 21.9873 26.5 19.9726 26.5 17.4873H23.5ZM22.8053 8.86863C23.238 9.14396 23.5 9.62127 23.5 10.1341H26.5C26.5 8.59557 25.714 7.16365 24.4159 6.33764L22.8053 8.86863ZM2.73258 6.32339C1.3501 7.12983 0.5 8.60989 0.5 10.2104H3.5C3.5 9.67689 3.78337 9.18354 4.24419 8.91472L2.73258 6.32339ZM13.1763 3.70433C13.6613 3.42141 14.2637 3.43306 14.7374 3.73451L16.348 1.20352C14.9269 0.299169 13.1197 0.264234 11.6647 1.113L13.1763 3.70433Z" fill="#D4D4D4"/>
<path d="M10 14H17" stroke="#D4D4D4" stroke-width="3" stroke-linecap="round"/>
</svg>
