<svg width="23" height="23" viewBox="0 0 23 23" fill="none" xmlns="http://www.w3.org/2000/svg">
<path d="M6.79402 4.18499C6.29623 5.02715 6.03354 5.98745 6.03333 6.96573C6.03312 8.00043 6.32654 9.01396 6.8795 9.88851C7.25392 10.4807 7.73693 10.9927 8.3 11.3992V11.6997H5.83333C4.68404 11.6997 3.58183 12.1563 2.76918 12.9689C1.95653 13.7816 1.5 14.8839 1.5 16.0331V16.7332C1.5 17.2612 1.66367 17.751 1.94304 18.1545C1.66557 18.5063 1.5 18.9505 1.5 19.4333C1.5 20.5747 2.42529 21.5 3.56669 21.5H19.4333C20.5747 21.5 21.5 20.5747 21.5 19.4333C21.5 18.9505 21.3344 18.5063 21.057 18.1545C21.3363 17.751 21.5 17.2612 21.5 16.7332V16.0331C21.5 14.8839 21.0435 13.7816 20.2308 12.9689C19.4182 12.1563 18.316 11.6997 17.1667 11.6997H14.7V11.3992C15.2182 11.0251 15.6689 10.5614 16.0296 10.0275C16.5773 9.21696 16.8974 8.27425 16.9566 7.29776C17.0159 6.32128 16.812 5.3468 16.3662 4.47596C15.9205 3.60513 15.2493 2.86985 14.4226 2.34684C13.5958 1.82383 12.6439 1.53225 11.6661 1.50252C10.6883 1.4728 9.7204 1.70602 8.86343 2.17786C8.00646 2.64969 7.29181 3.34284 6.79402 4.18499Z" stroke="#D4D4D4" stroke-width="3"/>
</svg>
